<?xml version="1.0" encoding="UTF-8"?>
<svg enable-background="new 0 0 97.283 115.333" viewBox="0 0 97.283 115.333" xmlns="http://www.w3.org/2000/svg">
 <defs>
  <linearGradient id="i" x1=".4409" x2="96.522" gradientUnits="userSpaceOnUse">
   <stop stop-color="#f2f2f2" offset="0"/>
   <stop stop-color="#d8d8d8" offset=".2146"/>
   <stop stop-color="#b6b6b6" offset=".5464"/>
   <stop stop-color="#a2a1a1" offset=".8202"/>
   <stop stop-color="#9a9999" offset="1"/>
  </linearGradient>
  <linearGradient id="h" x1="29.305" x2="58.063" gradientUnits="userSpaceOnUse">
   <stop stop-color="#fff" offset="0"/>
   <stop stop-color="#f7f7f7" offset=".1635"/>
   <stop stop-color="#e3e2e2" offset=".4124"/>
   <stop stop-color="#c1c0c0" offset=".714"/>
   <stop stop-color="#9a9999" offset="1"/>
  </linearGradient>
  <linearGradient id="g" x1="1.2959" x2="95.31" gradientUnits="userSpaceOnUse">
   <stop stop-color="#fff" offset="0"/>
   <stop stop-color="#8f8d8d" offset="1"/>
  </linearGradient>
  <linearGradient id="f" x1="11.689" x2="85.236" gradientUnits="userSpaceOnUse">
   <stop stop-color="#9c9c9c" offset="0"/>
   <stop offset="1"/>
  </linearGradient>
  <linearGradient id="e" x1="2.1372" x2="94.785" gradientUnits="userSpaceOnUse">
   <stop stop-color="#9c9c9c" offset="0"/>
   <stop offset="1"/>
  </linearGradient>
  <linearGradient id="d" x1="1.9854" x2="94.72" gradientUnits="userSpaceOnUse">
   <stop stop-color="#4a4949" offset="0"/>
   <stop stop-color="#4c4b4b" offset=".014"/>
   <stop stop-color="#6f6e6e" offset=".2972"/>
   <stop stop-color="#888787" offset=".5641"/>
   <stop stop-color="#979797" offset=".8058"/>
   <stop stop-color="#9c9c9c" offset="1"/>
  </linearGradient>
  <linearGradient id="c" x1="-282.08" x2="-280.71" gradientTransform="matrix(43.996 45.746 45.746 -43.996 -6229.9 30866)" gradientUnits="userSpaceOnUse">
   <stop stop-color="#7c7c7c" offset="0"/>
   <stop stop-color="#000042" offset="1"/>
  </linearGradient>
  <linearGradient id="b" x1="-282.09" x2="-280.68" gradientTransform="matrix(43.996 45.746 45.746 -43.996 -6229.9 30866)" gradientUnits="userSpaceOnUse">
   <stop stop-color="#a0a0a0" offset="0"/>
   <stop stop-color="#005" offset="1"/>
  </linearGradient>
  <linearGradient id="a" x1="-257.14" x2="-255.73" gradientTransform="matrix(0 231.57 231.57 0 -99909 59429)" gradientUnits="userSpaceOnUse">
   <stop stop-color="#fff" offset="0"/>
   <stop offset="1"/>
  </linearGradient>
 </defs>
 <path d="m48.466,1.421c10.964,0 22.261.949 32.777,4.216 4.465,1.386 13.875,4.392 13.565,10.525 1.304-6.099-8.096-9.424-12.333-10.833-10.843-3.606-22.645-4.594-34.009-4.594-11.33,0-23.104.98-33.912,4.595-4.471,1.495-12.903,4.707-12.467,10.451 .3-5.494 7.917-8.24 12.203-9.691 10.877-3.684 22.761-4.669 34.176-4.669" fill="#c6c6c6"/>
 <path d="m96.522,14.88c-.531-9.359-20.824-11.791-27.16-12.711-16.588-2.408-34.297-2.208-50.656,1.666-4.673,1.107-19.171,4.354-18.221,11.602l2.108,16.083 7.024,53.588c.545,4.163 1.204,8.121 1.06,12.293-.399,11.691 14.166,14.667 23.454,16.11 11.661,1.809 24.083,1.536 35.531-1.455 5.346-1.396 16.433-4.677 16.433-11.875 0-7.334 1.04-14.322 2.007-21.628 2.807-21.223 5.613-42.448 8.42-63.673" fill="url(#i)"/>
 <path d="m42.732,52.121c.37,8.011 11.94,10.267 14.331,17.754 .997,3.12 1.831,8.146-.51,10.93-1.707,2.029-4.635,2.229-7.013,2.93-8.034,2.365-5.843,13.845-2.587,19.409 1.307,2.23 7.108,8.937 10.458,8.063-3.411.89-8.772-.572-12.041-1.396-6.128-1.543-12.669-4.917-14.162-11.617-1.643-7.385.102-16.938 4.597-23.077 2.947-4.024 7.69-6.297 10.545-10.305 9.053-12.708-20.929-12.182-16.62-24.517 2.062-5.904 9.227-6.598 14.569-6.301 3.456.193 9.605.3 12.71,2.087-1.228-.708-5.924,1.873-6.917,2.434-5.016,2.833-7.624,7.866-7.36,13.606" fill="url(#h)"/>
 <path d="m82.238,5.468c2.911,14.606 3.579,30.457 3.292,45.332-.123,6.327-.513,13.027-5.096,17.826-4.568,4.779-8.362,9.284-11.465,15.221-2.279,4.361-4.05,9.51-9.006,11.429-9.022,3.49-21.53,2.747-30.94,2.46-3.783-.116-7.521-.846-11.029-2.285-1.235-2.045-2.52-4.227-3.086-6.575-.662-2.751.745-4.991 1.285-7.608 1.283-6.221-1.121-12.789-2.472-18.78-1.689-7.488-3.178-15.039-4.067-22.665-1.31-11.232-1.067-22.569 2.29-33.441-2.979,1.116-11.208,4.093-10.618,8.589 .2,1.524.399,3.048.599,4.572l2.951,22.484c2.165,16.492 4.328,32.982 6.492,49.473 .745,5.684-1.005,11.185 4.212,15.307 11.115,8.785 29.904,8.656 43.152,7.199 9.256-1.017 26.005-3.44 26.337-15.37 .115-4.146.713-8.174 1.247-12.287 2.168-16.669 4.334-33.339 6.502-50.007 .8-6.152 1.601-12.302 2.4-18.453 1.001-7.712-6.372-10.324-12.98-12.421" fill="url(#g)"/>
 <path d="m48.275,104.09c-11.187,0-27.822-.625-36.521-8.951-.477,6.75 1.634,10.117 7.934,13.028 8.815,4.072 19.14,5.115 28.735,5.115 9.596,0 19.92-1.043 28.735-5.115 6.267-2.896 8.684-6.53 7.951-13.342-8.41,8.7-25.72,9.265-36.834,9.265" fill="url(#f)"/>
 <path d="m93.692,29.368 1.093-11.608c-.734,5.764-9.642,8.434-14.158,9.785-10.351,3.099-21.399,4.029-32.16,4.029-10.793,0-21.882-.935-32.26-4.061-4.492-1.353-13.45-4.062-14.069-9.855 .282,2.885-.409,11.103 2.179,12.511 8.134,4.425 17.606,6.603 26.698,7.909 19.393,2.785 45.582,2.488 62.677-8.71" fill="url(#e)"/>
 <path d="m94.72,15.68c0,5.914-9.224,8.828-13.583,10.183-10.521,3.265-21.819,4.216-32.785,4.216s-22.264-.951-32.783-4.216c-4.36-1.354-13.584-4.27-13.584-10.183s9.229-8.824 13.584-10.178c10.519-3.268 21.818-4.222 32.783-4.222 10.966,0 22.266.954 32.785,4.222 4.355,1.353 13.583,4.269 13.583,10.178" fill="url(#d)"/>
 <path d="m22.004,3.843c-5.249,3.491-4.123,8.258-4.123,13.715 0,2.867 1.479,5.659 2.164,8.395 .614,2.453 6.863,2.506 9.271,2.847 8.499,1.198 17.13,1.517 25.701,1.129 4.693-.212 19.874.166 21.859-4.302 2.15-4.842 5.77-9.731 2.732-15.204-.823-1.484-2.117-2.563-3.242-3.802-2.065-2.28-1.718-2.855-5.229-3.473-16.028-2.825-33.202-2.733-49.133.695" fill="#7c7c7c"/>
 <path d="m65.733,29.013c-3.43.123-10.528,1.403-8.144-3.608 2.257-4.746-4.635-8.458-3.771-13.624 .609-3.648 4.923-4.728 7.83-5.906 1.271-.515 2.982-1.18 3.512-2.582 .66-1.755-10.528-1.878-12.367-1.938-5.102-.168-10.208-.041-15.295.358-1.436.114-6.4-.293-6.036,1.581 .223,1.14 1.076,1.883 2.094,2.338 2.275,1.02 5.085.869 7.155,2.359 1.988,1.431 1.162,4.054 1.755,6.12 .779,2.718 4.094,5.714 3.821,8.604-.443,4.723-12.268,5.738-15.315,6.299 11.512,1.442 23.248,1.442 34.761-.001" fill="#a0a0a0"/>
 <path d="m38.323,6.952c-8.537,4.366-13.704,10.878-15.747,20.21 3.673.596 7.845,2.003 11.516,1.243 1.356-.281 3.187.062 2.845-1.579-.342-1.632-.522-3.299-.547-4.966-.073-4.979 1.306-9.889 3.913-14.13-.628-.341-1.289-.6-1.98-.778" fill="url(#c)"/>
 <path d="m37.141,27.723c-1.583.385-3.178.719-4.778,1.027l5.359.871c-.233-.621-.428-1.252-.581-1.898m4.819-22.407c-1.242.478-2.453,1.03-3.637,1.636 2.508.706 1.985.528 3.637-1.636" fill="url(#b)"/>
 <path d="m3.272,39.509c2.493,1.437 18.52,10.011 46.781,10.454 17.953.281 33.382-4.206 43.759-9.817" fill="none" stroke="#7f7f7f"/>
 <path d="m2.93,39.305 .343.204" fill="none" stroke="#7f7f7f"/>
 <path d="m4.349,48.619c3.14,1.764 19.054,9.891 46.547,10.322 16.626.26 31.087-3.57 41.375-8.595" fill="none" stroke="#7f7f7f"/>
 <path d="m6.184,58.974c5.794,2.824 20.856,8.853 44.432,9.222 15.961.25 29.927-3.269 40.123-7.996" fill="none" stroke="#7f7f7f"/>
 <path d="m7.251,68.207c5.286,2.665 20.582,9.144 45.046,9.526 14.306.225 27.01-2.581 36.831-6.569" fill="none" stroke="#7f7f7f"/>
 <path d="m8.572,77.958c6.407,2.97 21.104,8.401 43.445,8.751 13.946.218 26.369-2.441 36.085-6.268" fill="none" stroke="#7f7f7f"/>
 <path d="m9.832,88.059c6.962,3.045 21.201,7.857 42.186,8.186 13.304.209 25.22-2.202 34.722-5.746" fill="none" stroke="#7f7f7f"/>
 <path d="m49.214 95.964v-46.002" fill="none" stroke="#7f7f7f"/>
 <path d="m37.433 49.681v45.443" fill="none" stroke="#7f7f7f"/>
 <path d="m26.493 47.438v45.721" fill="none" stroke="#7f7f7f"/>
 <path d="m18.079 46.035 1.122 45.721" fill="none" stroke="#7f7f7f"/>
 <path d="m10.224 42.951 3.086 46.001" fill="none" stroke="#7f7f7f"/>
 <path d="m79.788 92.878 5.61-49.086" fill="none" stroke="#7f7f7f"/>
 <path d="m73.898 93.721 2.244-46.843" fill="none" stroke="#7f7f7f"/>
 <path d="m67.446,95.404 .561-46.002" fill="none" stroke="#7f7f7f"/>
 <path d="m58.75 95.964 1.123-45.721" fill="none" stroke="#7f7f7f"/>
 <path d="m9.168,7.516c13.636-6.789 31.088-7.298 45.966-6.632 7.771.347 15.589,1.253 23.13,3.208 5.358,1.389 14.305,3.765 17.043,9.167 1.971,3.889-.935,12.287-1.461,16.262-1.412,10.682-2.827,21.366-4.24,32.049-1.225,9.256-2.449,18.508-3.676,27.763-.434,3.28-.71,6.317-.607,9.63 .163,5.315-4.292,8.557-8.685,10.582-13.766,6.342-31.719,6.383-46.282,3.274-5.4-1.152-11.435-2.895-15.61-6.719-4.039-3.7-2.566-6.618-3.173-11.282-1.915-14.69-3.828-29.38-5.741-44.068l-3.561-27.321c-1.048-8.051-2.296-11.796 6.897-15.913m39.298-7.516c-13.882,0-30.546.754-42.931,7.853-5.148,2.952-6.016,5.794-5.332,11.015l6.564,50.166 2.835,21.655c.525,4.004-.733,9.31 1.147,12.777 5.73,10.57 25.268,11.618 35.462,11.829 11.615.239 30.452-.352 38.688-10.28 2.838-3.423 1.331-7.026 1.858-10.995 .489-3.684.978-7.37 1.467-11.055 1.826-13.76 3.651-27.519 5.478-41.279 1.182-8.9 2.362-17.802 3.545-26.705 .677-5.112-8.218-8.504-11.679-9.754-11.722-4.227-24.735-5.227-37.102-5.227" fill="url(#a)"/>
</svg>
